<?xml version="1.0"?>
<svg xmlns="http://www.w3.org/2000/svg" xmlns:xlink="http://www.w3.org/1999/xlink" version="1.1" id="Capa_1" x="0px" y="0px" viewBox="0 0 512.003 512.003" style="enable-background:new 0 0 512.003 512.003;" xml:space="preserve" width="512px" height="512px"><g><g>
	<g>
		<path d="M403.094,50.001c4.762-5.312,7.665-12.323,7.665-20.001c0-16.542-13.458-30-30-30s-30,13.458-30,30    c0,7.678,2.903,14.689,7.665,20.001c-17.808,8.408-30.165,26.534-30.165,47.499c0,28.948,23.552,52.5,52.5,52.5    c28.949,0,52.5-23.552,52.5-52.5C433.259,76.536,420.903,58.41,403.094,50.001z M380.759,15c8.271,0,15,6.729,15,15    s-6.729,15-15,15s-15-6.729-15-15S372.488,15,380.759,15z M380.759,60c8.674,0,16.663,2.968,23.023,7.931    c-13.838,9.419-32.205,9.42-46.045,0C364.097,62.968,372.086,60,380.759,60z M380.759,135c-20.678,0-37.5-16.822-37.5-37.5    c0-6.567,1.702-12.742,4.68-18.116c9.751,7.072,21.284,10.615,32.82,10.615s23.07-3.543,32.82-10.615    c2.978,5.374,4.68,11.549,4.68,18.116C418.259,118.178,401.437,135,380.759,135z" data-original="#000000" class="active-path" data-old_color="#000000" fill="#49860A"/>
	</g>
</g><g>
	<g>
		<path d="M405.759,165h-50c-12.563,0-23.178,8.472-26.452,20h-71.611c-1.375-4.84-4.042-9.139-7.607-12.5    c5.323-5.018,8.655-12.125,8.655-20v-55c0-37.22-30.28-67.5-67.5-67.5c-37.22,0-67.5,30.28-67.5,67.5v55    c0,7.875,3.332,14.982,8.655,20c-4.577,4.315-7.676,10.177-8.455,16.743c-29.166,30.192-45.2,69.81-45.2,111.896V337.5    c0,4.143,3.358,7.5,7.5,7.5c4.142,0,7.5-3.357,7.5-7.5v-36.361c0-32.497,10.544-63.37,30-88.728V292.5c0,4.143,3.358,7.5,7.5,7.5    h8.044c1.621,11.281,6.84,21.41,14.456,29.192v159.903l-24.872,8.29c-3.93,1.31-6.053,5.558-4.744,9.487    c1.048,3.143,3.974,5.13,7.114,5.13c0.786,0,1.586-0.125,2.373-0.387l30-10c3.063-1.021,5.128-3.887,5.128-7.115V339.924    c6.824,3.251,14.452,5.076,22.5,5.076c8.048,0,15.676-1.825,22.5-5.076V494.5c0,3.229,2.066,6.095,5.128,7.115l30,10    c0.787,0.262,1.586,0.387,2.373,0.387c3.14,0,6.066-1.987,7.114-5.13c1.31-3.93-0.814-8.178-4.744-9.487l-24.872-8.29V329.192    c7.616-7.782,12.835-17.911,14.456-29.192h8.044c4.142,0,7.5-3.357,7.5-7.5V240h65.974c1.184,0,2.363-0.025,3.541-0.063V330    h-62.034c-10.727,0-20.002,7.646-22.061,18.188c-1.152,5.898,0.062,11.893,3.418,16.878c3.356,4.985,8.454,8.365,14.403,9.527    l77.97,14.664l3.365,25.961c0.49,3.781,3.715,6.537,7.429,6.537c0.321,0,0.646-0.021,0.973-0.063    c4.108-0.532,7.006-4.294,6.474-8.401l-4.065-31.361c-0.417-3.221-2.86-5.807-6.052-6.407l-83.271-15.661    c-1.966-0.384-3.666-1.511-4.784-3.172c-1.119-1.662-1.523-3.66-1.14-5.626c0.687-3.515,3.772-6.063,7.349-6.063h107.024v144.095    l-24.872,8.29c-3.93,1.31-6.053,5.558-4.744,9.487c1.048,3.143,3.974,5.13,7.114,5.13c0.786,0,1.586-0.125,2.373-0.387l30-10    c3.063-1.021,5.128-3.887,5.128-7.115V344.456c25.407-3.651,45-25.554,45-51.956v-100C433.259,177.337,420.923,165,405.759,165z     M138.745,192.503c0.001-6.896,5.608-12.503,12.5-12.503h2.5v37.5c0,9.777-6.271,18.114-15,21.21V192.503z M191.245,330    c-18.11,0-33.261-12.904-36.745-30h73.491C224.506,317.096,209.355,330,191.245,330z M243.745,285h-105v-30.755    c17.096-3.484,30-18.635,30-36.745V180h45v37.5c0,18.11,12.904,33.261,30,36.745V285z M243.745,238.71    c-8.729-3.096-15-11.433-15-21.21V180h2.5c6.892,0,12.5,5.607,12.5,12.5V238.71z M243.745,152.5c0,6.893-5.607,12.5-12.5,12.5h-80    c-6.893,0-12.5-5.607-12.5-12.5v-55c0-28.948,23.551-52.5,52.5-52.5c28.949,0,52.5,23.552,52.5,52.5V152.5z M328.259,224.928    c-1.177,0.043-2.357,0.072-3.541,0.072h-65.974v-25h69.515V224.928z M380.759,330h-37.5v-30h74.245    C414.02,317.096,398.869,330,380.759,330z M418.259,285h-75v-46.552c22.311-3.768,42.865-14.322,59.188-30.645    c2.929-2.929,2.929-7.677,0-10.607c-2.929-2.928-7.678-2.928-10.606,0c-13.477,13.477-30.293,22.401-48.582,26.003v-30.7    c0-6.893,5.607-12.5,12.5-12.5h50c6.893,0,12.5,5.607,12.5,12.5V285z" data-original="#000000" class="active-path" data-old_color="#000000" fill="#49860A"/>
	</g>
</g><g>
	<g>
		<path d="M221.245,90h-60c-4.142,0-7.5,3.357-7.5,7.5v30c0,4.143,3.358,7.5,7.5,7.5h60c4.142,0,7.5-3.357,7.5-7.5v-30    C228.745,93.357,225.387,90,221.245,90z M183.745,120h-15v-15h15V120z M213.745,120h-15v-15h15V120z" data-original="#000000" class="active-path" data-old_color="#000000" fill="#49860A"/>
	</g>
</g></g> </svg>
