<?xml version="1.0"?>
<svg xmlns="http://www.w3.org/2000/svg" xmlns:xlink="http://www.w3.org/1999/xlink" version="1.1" id="Capa_1" x="0px" y="0px" viewBox="0 0 297 297" style="enable-background:new 0 0 297 297;" xml:space="preserve" width="512px" height="512px"><g><path d="M289.442,176.214l-24.482-24.483c-4.875-4.873-11.354-7.556-18.245-7.556l-66.231,0L92.845,78.7  c-1.704-1.274-3.774-1.961-5.901-1.961H64.396c-3.384,0-6.532,1.736-8.338,4.598c-1.806,2.862-2.018,6.451-0.561,9.504  l25.437,53.333l-18.179,0l-9.407-37.628c-1.097-4.388-5.04-7.467-9.564-7.467H32.51c-3.284,0-6.352,1.635-8.184,4.36  c-1.071,1.593-26.157,39.415-24.22,79.056c0.101,9.234,5.396,37.767,66.226,37.767h204.865c14.228,0,25.802-11.574,25.802-25.802  C297,187.568,294.316,181.088,289.442,176.214z M83.668,96.456l96.215,71.881h-65.577L80.021,96.456H83.668z M271.198,200.544  H66.333c-27.819,0-46.51-7.365-46.51-18.326c0-0.168-0.005-0.338-0.013-0.506c-1.248-24.269,10.463-48.97,16.874-60.531  l8.811,35.244c1.097,4.388,5.04,7.467,9.564,7.467l35.281,0l8.847,18.549c1.637,3.43,5.099,5.615,8.899,5.615h101.465  c4.247,0,8.016-2.72,9.356-6.75c1.339-4.03-0.053-8.465-3.455-11.006l-8.575-6.407l39.839,0c1.625,0,3.154,0.633,4.303,1.782  l24.481,24.482c1.15,1.15,1.783,2.677,1.783,4.303C277.282,197.815,274.553,200.544,271.198,200.544z" data-original="#000000" class="active-path" data-old_color="#000000" fill="#49860A"/></g> </svg>
