<?xml version="1.0"?>
<svg xmlns="http://www.w3.org/2000/svg" id="Capa_1" enable-background="new 0 0 512 512" height="512px" viewBox="0 0 512 512" width="512px"><g><g><path d="m368.28 143.72h-65.771l-46.509-46.509-46.509 46.509h-65.771v65.771l-46.509 46.509 46.509 46.509v65.771h65.771l46.509 46.509 46.509-46.509h65.771v-65.771l46.509-46.509-46.509-46.509zm-112.28 202.28c-42.695 0-63.939-28.676-80.098-39.287l30.205-6.973c20.538-4.731 34.893-22.719 34.893-43.74s-14.355-39.009-34.893-43.74l-30.205-6.973c16.485-10.825 37.343-39.287 80.098-39.287 49.629 0 90 40.371 90 90s-40.371 90-90 90z" data-original="#000000" class="active-path" data-old_color="#000000" fill="#00AF80"/><path d="m256 196c-4.424 0-8.804.513-13.066 1.494 17.358 13.828 28.066 35.039 28.066 58.506s-10.708 44.678-28.066 58.506c4.262.981 8.642 1.494 13.066 1.494 33.091 0 60-26.909 60-60s-26.909-60-60-60z" data-original="#000000" class="active-path" data-old_color="#000000" fill="#00AF80"/><path d="m0 0v512h512v-512zm398.28 314.931v83.35h-83.35l-58.93 58.93-58.931-58.931h-83.35v-83.35l-58.93-58.93 58.931-58.931v-83.35h83.35l58.93-58.93 58.931 58.931h83.35v83.35l58.93 58.93z" data-original="#000000" class="active-path" data-old_color="#000000" fill="#00AF80"/></g></g> </svg>
