<?xml version="1.0"?>
<svg xmlns="http://www.w3.org/2000/svg" height="512px" viewBox="0 0 496 496" width="512px" class=""><g><g fill="#f0bc5e"><path d="m136 8h80v40h-80zm0 0" data-original="#F0BC5E" class="" style="fill:#F0BC5E"/><path d="m152 152h72v32h-72zm0 0" data-original="#F0BC5E" class="" style="fill:#F0BC5E"/><path d="m208 296h80v24h-80zm0 0" data-original="#F0BC5E" class="" style="fill:#F0BC5E"/><path d="m64 296h80v24h-80zm0 0" data-original="#F0BC5E" class="" style="fill:#F0BC5E"/><path d="m352 296h80v24h-80zm0 0" data-original="#F0BC5E" class="" style="fill:#F0BC5E"/><path d="m64 352h368v40h-368zm0 0" data-original="#F0BC5E" class="" style="fill:#F0BC5E"/></g><path d="m392 46.183594v-46.183594h-288v46.183594c-13.886719 9.921875-26.742188 21.265625-38.320312 33.816406h-41.679688c-13.230469 0-24 10.769531-24 24s10.769531 24 24 24h7.023438c-20.28125 36.617188-31.023438 77.777344-31.023438 120 0 136.753906 111.257812 248 248 248s248-111.246094 248-248c0-80.167969-38.839844-155.238281-104-201.816406zm88 201.816406c0 20.863281-2.816406 41.070312-8 60.3125v-18.207031c0-14.210938-9.542969-26.867188-23.207031-30.777344l-32.792969-9.359375v-10.167969c9.65625-7.3125 16-18.785156 16-31.792969v-16c0-22.054687-17.945312-40-40-40v-85.878906c55.359375 43.886719 88 110.75 88 181.871094zm-28.910156 112c-3.433594 6.199219-7.121094 12.238281-11.089844 18.078125v-18.078125zm-414.210938-16c-2.390625-5.238281-4.648437-10.558594-6.65625-16h435.554688c-2.007813 5.441406-4.265625 10.761719-6.65625 16zm19.121094 16v18.078125c-3.96875-5.839844-7.65625-11.878906-11.089844-18.078125zm0-248v-16h16v16zm32-16h133.574219l12 8-12 8h-133.574219zm200 24h55.449219c-3.625 28.894531-26.554688 51.816406-55.449219 55.449219zm0-16v-55.449219c28.894531 3.625 51.816406 26.554688 55.449219 55.449219zm-16 56.207031c-6.703125-5.078125-14.960938-8.207031-24-8.207031-5.425781 0-10.585938 1.105469-15.304688 3.070312-7.039062-7.726562-12.015624-17.015624-14.605468-27.070312h8.335937l36-24-36-24h-1.738281c9.96875-17.191406 27.457031-28.855469 47.3125-31.367188zm120 7.792969c13.230469 0 24 10.769531 24 24v16c0 13.230469-10.769531 24-24 24s-24-10.769531-24-24v-16c0-13.230469 10.769531-24 24-24zm0 80c2.734375 0 5.414062-.28125 8-.808594v5.496094l-8 8-8-8v-5.496094c2.585938.527344 5.265625.808594 8 .808594zm-18.328125 16.984375 18.328125 18.328125 18.328125-18.328125 34.0625 9.734375c6.832031 1.953125 11.609375 8.273438 11.609375 15.386719v21.894531h-16v-16h-16v16h-64v-16h-16v16h-16v-21.894531c0-7.113281 4.777344-13.433594 11.601562-15.386719zm-61.671875 47.015625h-16v-16h-16v16h-64v-16h-16v16h-16v-21.894531c0-7.113281 4.777344-13.433594 11.601562-15.386719l34.070313-9.734375 18.328125 18.328125 18.328125-18.328125 34.0625 9.734375c6.832031 1.953125 11.609375 8.273438 11.609375 15.386719zm-56-59.3125-8 8-8-8v-5.496094c2.585938.527344 5.265625.808594 8 .808594s5.414062-.28125 8-.808594zm-8-20.6875c-13.230469 0-24-10.769531-24-24v-16c0-13.230469 10.769531-24 24-24s24 10.769531 24 24v16c0 13.230469-10.769531 24-24 24zm-46.390625-104c1.125 5.527344 2.878906 10.871094 5.125 16h-54.734375v16h64v-.054688c1.078125 1.429688 2.230469 2.816407 3.40625 4.175782-3.34375 3.421875-6.070312 7.4375-8.015625 11.878906h-59.390625v16h56v16c0 13.015625 6.34375 24.488281 16 31.792969v10.167969l-32.792969 9.359374c-6.0625 1.734376-11.238281 5.253907-15.207031 9.808594-3.96875-4.554687-9.144531-8.074218-15.207031-9.808594l-32.792969-9.351562v-10.167969c9.65625-7.3125 16-18.785156 16-31.792969v-16c0-16.359374-9.894531-30.414062-24-36.609374v-27.398438zm-73.609375 64v16c0 13.230469-10.769531 24-24 24s-24-10.769531-24-24v-16c0-13.230469 10.769531-24 24-24s24 10.769531 24 24zm-24 56c2.734375 0 5.414062-.28125 8-.808594v5.496094l-8 8-8-8v-5.496094c2.585938.527344 5.265625.808594 8 .808594zm-18.328125 16.984375 18.328125 18.328125 18.328125-18.328125 34.0625 9.734375c6.832031 1.953125 11.609375 8.273438 11.609375 15.386719v21.894531h-16v-16h-16v16h-64v-16h-16v16h-16v-21.894531c0-7.113281 4.777344-13.433594 11.601562-15.386719zm290.328125-248.984375v139.390625c-14.105469 6.195313-24 20.25-24 36.609375v16c0 13.015625 6.34375 24.488281 16 31.792969v10.167969l-32.792969 9.359374c-6.0625 1.734376-11.238281 5.253907-15.207031 9.808594-3.96875-4.554687-9.144531-8.074218-15.207031-9.808594l-32.792969-9.351562v-10.167969c9.65625-7.3125 16-18.785156 16-31.792969v-16c0-.136718-.039062-.265624-.039062-.398437 40.390624-4.015625 72.039062-38.183594 72.039062-79.609375 0-44.113281-35.886719-80-80-80-31.921875 0-60.6875 19.070312-73.320312 48h-86.679688v-64zm-272 50.144531v13.855469h-15.863281c5.085937-4.839844 10.359375-9.488281 15.863281-13.855469zm-88 37.855469c0-4.40625 3.59375-8 8-8h16v16h-16c-4.40625 0-8-3.59375-8-8zm33.535156 24h54.464844v24c-22.054688 0-40 17.945312-40 40v16c0 13.015625 6.34375 24.488281 16 31.792969v10.167969l-32.792969 9.359374c-13.664062 3.910157-23.207031 16.566407-23.207031 30.785157v18.207031c-5.183594-19.242188-8-39.449219-8-60.3125 0-42.511719 11.648438-83.871094 33.535156-120zm198.464844 352c-70.335938 0-133.414062-31.503906-176-81.105469v-38.894531h352v38.894531c-42.585938 49.601563-105.664062 81.105469-176 81.105469zm0 0" data-original="#000000" class="active-path" style="fill:#49860A" data-old_color="#000000"/><path d="m136 32h16v16h-16zm0 0" data-original="#000000" class="active-path" style="fill:#49860A" data-old_color="#000000"/><path d="m168 32h16v16h-16zm0 0" data-original="#000000" class="active-path" style="fill:#49860A" data-old_color="#000000"/><path d="m200 32h16v16h-16zm0 0" data-original="#000000" class="active-path" style="fill:#49860A" data-old_color="#000000"/></g> </svg>
